<svg version="1.1" id="Layer_1" xmlns="http://www.w3.org/2000/svg" xmlns:xlink="http://www.w3.org/1999/xlink" x="0px" y="0px"
	 width="100%" viewBox="0 0 619 448" enable-background="new 0 0 619 448" xml:space="preserve">
<path fill="#FFFEFE" opacity="1.000000" stroke="none" 
	d="
M444.000000,449.000000 
	C296.034546,449.000000 148.569061,449.000000 1.051801,449.000000 
	C1.051801,299.736176 1.051801,150.472336 1.051801,1.104245 
	C207.215485,1.104245 413.431061,1.104245 619.823303,1.104245 
	C619.823303,150.333160 619.823303,299.666565 619.823303,449.000000 
	C561.472290,449.000000 502.986145,449.000000 444.000000,449.000000 
M291.473297,175.170776 
	C289.835144,175.450470 288.119019,175.509857 286.575195,176.056168 
	C283.456818,177.159698 279.124115,177.691483 277.663879,179.975388 
	C275.254547,183.743820 279.663483,186.299850 282.199036,188.240982 
	C288.706329,193.222763 290.801361,199.200958 288.213715,206.958450 
	C287.641693,208.673309 287.384552,210.537857 287.269196,212.351700 
	C286.969360,217.067596 289.980804,219.187866 294.285614,217.211655 
	C297.455994,215.756210 300.608887,214.178787 303.529541,212.285492 
	C306.776459,210.180710 309.696716,210.454086 312.845764,212.332611 
	C315.700531,214.035599 318.612427,215.672699 321.618011,217.086044 
	C326.213623,219.247101 329.232910,217.187515 328.789612,212.103134 
	C328.472687,208.468918 327.777863,204.853210 327.032166,201.274979 
	C326.321289,197.863968 327.039825,195.139679 329.695496,192.753189 
	C332.414307,190.309952 335.027954,187.714111 337.423553,184.955719 
	C340.523804,181.385986 339.382935,177.971069 334.739594,176.882324 
	C331.348450,176.087204 327.879333,175.415390 324.413635,175.204788 
	C320.760376,174.982773 318.625427,173.274750 317.208099,170.069489 
	C315.661163,166.571213 314.059692,163.075562 312.171722,159.755203 
	C309.995667,155.928162 306.174408,155.923172 304.004425,159.739594 
	C302.033844,163.205246 300.784149,167.126663 298.527161,170.366882 
	C297.111877,172.398743 294.422852,173.543350 291.473297,175.170776 
M434.925903,197.493301 
	C436.617920,193.182953 433.565613,192.157928 430.657715,192.469223 
	C423.609619,193.223724 418.437988,191.331955 415.386658,184.501511 
	C414.775238,183.132828 412.252563,181.316177 411.373016,181.659256 
	C409.869995,182.245560 408.214722,184.252151 407.946655,185.880096 
	C406.790314,192.903076 402.787781,196.525528 395.937103,197.745697 
	C394.411560,198.017441 392.235687,199.525665 392.001404,200.773026 
	C391.771240,201.998688 393.294891,204.238617 394.628662,204.956741 
	C401.025452,208.400925 403.369049,213.454803 402.216705,220.563568 
	C401.970428,222.082855 402.850494,224.963120 403.778992,225.228043 
	C405.307617,225.664185 407.856903,225.030518 408.998993,223.878952 
	C413.903503,218.933777 419.114960,218.209320 425.060028,221.633942 
	C425.481995,221.877014 425.996948,221.974915 426.480286,222.092606 
	C430.376129,223.041031 432.168457,221.226242 431.159607,217.267334 
	C430.708893,215.498734 430.180511,213.728622 429.467712,212.052612 
	C428.014648,208.635803 428.334259,205.661575 430.976257,202.891251 
	C432.342102,201.459000 433.380676,199.714615 434.925903,197.493301 
M201.776352,198.008133 
	C201.491608,199.890030 201.558487,201.922592 200.833038,203.615646 
	C199.928558,205.726501 198.261063,207.495605 197.118820,209.522598 
	C194.942169,213.385239 196.203949,215.536133 200.637268,215.661850 
	C201.630096,215.690018 202.669525,215.674164 203.617508,215.418747 
	C208.693573,214.051163 212.333206,215.770996 214.802460,220.335007 
	C215.351227,221.349304 216.014877,222.427933 216.909500,223.097885 
	C218.132584,224.013763 219.816299,225.340027 220.953491,225.062088 
	C222.135406,224.773224 223.605286,222.850891 223.732773,221.525803 
	C224.442673,214.148102 228.112930,209.729492 235.427628,208.116486 
	C236.760834,207.822479 238.763702,206.123230 238.730927,205.129623 
	C238.683090,203.679733 237.394135,201.603989 236.072769,200.975494 
	C229.478592,197.839081 226.856964,192.918533 227.720322,185.702713 
	C227.892410,184.264481 226.739670,181.770477 225.585693,181.315292 
	C224.355179,180.829941 221.868805,181.701767 220.849564,182.819199 
	C216.073685,188.055145 210.744217,189.237991 204.421814,186.039307 
	C203.987793,185.819733 203.463120,185.748932 202.970642,185.680161 
	C199.512360,185.197159 197.925964,186.892090 198.904037,190.239548 
	C199.602600,192.630356 200.607361,194.931717 201.776352,198.008133 
M225.241089,61.274452 
	C233.989883,76.761421 242.736633,92.249550 251.489929,107.733971 
	C252.634674,109.759018 253.457520,112.155899 255.096771,113.646927 
	C256.251099,114.696892 259.005768,115.312752 260.179749,114.630959 
	C261.282349,113.990639 261.831390,111.295044 261.560791,109.682167 
	C261.250061,107.830223 259.786133,106.165260 258.795532,104.434875 
	C250.284302,89.567162 241.822861,74.670212 233.165390,59.888084 
	C232.290161,58.393661 230.227539,56.762245 228.703308,56.749836 
	C227.532883,56.740299 226.342514,59.180012 225.241089,61.274452 
M368.910828,88.487991 
	C376.388977,75.337456 383.827820,62.164291 391.379120,49.055923 
	C392.847900,46.506306 393.359009,43.921532 390.344482,42.889931 
	C388.793121,42.359024 385.475708,43.455902 384.666748,44.826633 
	C374.951477,61.289169 365.474915,77.895645 356.226410,94.625069 
	C355.444153,96.040100 356.748230,98.608521 357.083038,100.641098 
	C359.059875,99.959084 361.708954,99.846855 362.871857,98.474915 
	C365.201508,95.726456 366.718384,92.289024 368.910828,88.487991 
M418.916473,142.445831 
	C424.496765,136.728409 430.087280,131.020935 435.651642,125.288040 
	C437.528839,123.353981 439.842926,121.249771 437.176025,118.525604 
	C434.374512,115.663872 432.072723,117.771904 429.997131,119.906364 
	C417.350708,132.911407 404.703339,145.915573 392.068726,158.932129 
	C390.166565,160.891800 387.999939,163.055786 390.765564,165.699738 
	C393.653900,168.461044 395.928680,166.254776 397.966797,164.150757 
	C404.798187,157.098434 411.600494,150.017960 418.916473,142.445831 
M212.023773,156.495239 
	C217.091431,161.764175 221.977753,167.230759 227.354492,172.162766 
	C228.695251,173.392639 232.324951,173.913101 233.664093,172.980743 
	C236.314590,171.135376 234.643005,168.642166 232.755020,166.699280 
	C220.015350,153.589294 207.289368,140.465988 194.562057,127.343987 
	C192.457291,125.173958 190.026382,123.229172 187.338089,125.977753 
	C184.761536,128.612091 187.018753,130.840164 188.904785,132.782639 
	C196.430832,140.533844 203.982697,148.259979 212.023773,156.495239 
M352.654175,353.978882 
	C331.807220,367.367950 322.073059,386.963562 320.689209,411.220428 
	C320.549072,413.676514 320.702423,416.562225 323.833069,416.149872 
	C325.177185,415.972900 327.085510,413.013397 327.150116,411.259644 
	C327.966705,389.078674 337.216492,371.669342 355.652252,359.150513 
	C356.907410,358.298157 357.463531,356.416412 358.344818,355.013428 
	C356.672089,354.558838 354.999329,354.104279 352.654175,353.978882 
M65.404747,304.172668 
	C66.697128,304.909973 67.913742,305.863617 69.294937,306.347290 
	C75.378120,308.477509 81.231461,307.972626 86.047958,303.478088 
	C90.912743,298.938477 91.639877,293.007874 89.843742,286.890137 
	C88.205505,281.310211 84.196632,277.963684 78.450264,276.984497 
	C71.254272,275.758270 64.940887,278.669464 61.884304,284.417419 
	C58.538303,290.709595 59.609890,297.700989 65.404747,304.172668 
M110.557945,304.857513 
	C115.816864,310.904510 122.339478,303.516266 127.943466,307.614563 
	C127.943466,296.567719 127.943466,286.648895 127.943466,276.432251 
	C126.190018,276.432251 124.621826,276.432251 122.771622,276.432251 
	C122.619225,279.726715 122.476509,282.811646 122.333252,285.908325 
	C112.679291,284.998779 108.295578,288.119568 108.258278,296.144562 
	C108.245720,298.846161 109.446327,301.553406 110.557945,304.857513 
M281.963257,287.390076 
	C280.702271,290.523407 278.670441,293.579773 278.348175,296.806824 
	C277.761322,302.683624 280.806427,307.072021 285.210785,307.259827 
	C289.418121,307.439240 293.663483,306.726044 297.867432,306.407043 
	C297.867432,296.545654 297.867432,286.521454 297.867432,276.368286 
	C296.069672,276.368286 294.629852,276.368286 292.875122,276.368286 
	C292.719666,279.659302 292.574341,282.736328 292.461334,285.128906 
	C288.828003,285.796173 285.698059,286.371002 281.963257,287.390076 
M180.879395,284.644043 
	C180.879395,292.072845 180.879395,299.501648 180.879395,307.272675 
	C183.105621,307.157471 184.690948,307.075439 186.579834,306.977722 
	C186.579834,304.950073 186.579834,303.311340 186.579834,301.672638 
	C186.579834,300.094055 186.579834,298.515472 186.579834,296.986511 
	C189.707550,296.664459 192.045959,296.590973 194.315201,296.156311 
	C199.546494,295.154236 202.384308,291.882996 202.525635,286.982269 
	C202.669891,281.980469 200.099655,278.330414 194.758041,277.579773 
	C190.293472,276.952332 185.670624,277.451019 180.879883,277.451019 
	C180.879883,279.714417 180.879883,281.703552 180.879395,284.644043 
M331.752991,300.471008 
	C332.457520,294.370148 331.235687,292.197815 325.836609,290.047241 
	C324.296082,289.433624 322.474152,289.214661 321.237671,288.237305 
	C320.004150,287.262329 319.342987,285.563141 318.430878,284.181488 
	C320.019409,283.236053 321.518524,282.017822 323.232788,281.455963 
	C324.140167,281.158569 325.516296,281.826599 326.516663,282.364227 
	C329.597137,284.019775 330.606293,282.427795 331.578369,278.404388 
	C327.399963,277.916901 323.564819,276.872070 319.850586,277.199371 
	C315.911621,277.546448 313.335724,280.463318 312.867401,284.574554 
	C312.395477,288.717255 314.233154,291.634003 318.194427,293.108856 
	C319.904266,293.745483 321.951752,293.964264 323.255493,295.069366 
	C324.645233,296.247345 325.337250,298.248413 326.333862,299.890137 
	C324.613190,300.880371 322.988403,302.286804 321.137787,302.713135 
	C319.922394,302.993103 318.249207,302.072632 317.012115,301.313293 
	C314.142426,299.551758 312.760040,300.653198 312.003296,303.469940 
	C318.727905,309.806946 327.353088,308.759644 331.752991,300.471008 
M315.447449,121.849258 
	C319.184082,115.769440 318.450134,109.982742 313.496490,106.467171 
	C308.943481,103.235939 303.322052,103.948532 299.654816,108.221802 
	C295.999512,112.481178 296.275330,118.623230 300.302399,122.643379 
	C304.478271,126.811989 309.621063,126.728981 315.447449,121.849258 
M304.376373,378.538177 
	C304.377411,389.697144 304.245636,400.859528 304.534332,412.011047 
	C304.573944,413.540131 306.705322,415.015045 307.868225,416.515045 
	C308.848022,415.213928 310.661346,413.924500 310.679749,412.609894 
	C310.882843,398.122772 310.884735,383.630585 310.671417,369.143738 
	C310.652557,367.863159 308.735382,366.610504 307.699921,365.344849 
	C306.599792,366.583862 304.805786,367.694092 304.546844,369.089233 
	C304.038574,371.827454 304.384613,374.724243 304.376373,378.538177 
M335.541595,286.628571 
	C335.498260,291.113861 335.279938,295.606201 335.460022,300.082489 
	C335.645874,304.701752 338.478699,307.654968 342.529388,307.513245 
	C346.273804,307.382263 350.003723,306.836731 353.994446,306.449036 
	C353.994446,299.895905 353.994446,293.011169 353.994446,285.745148 
	C352.142517,285.882904 350.599823,285.997650 348.907715,286.123535 
	C348.907715,290.618378 349.302155,294.654938 348.725098,298.547485 
	C348.473419,300.245117 346.487732,302.498901 344.835480,302.998535 
	C341.824707,303.908905 340.866455,301.340668 340.800415,298.791931 
	C340.693573,294.668060 340.771637,290.539429 340.771637,286.063721 
	C338.953094,286.063721 337.526184,286.063721 335.541595,286.628571 
M485.740601,290.905914 
	C485.739960,293.399414 485.623199,295.899658 485.767853,298.384705 
	C485.952057,301.549561 484.385651,303.091248 481.437134,303.226288 
	C478.221649,303.373596 477.678711,301.013367 477.632965,298.530273 
	C477.557312,294.426666 477.612366,290.320709 477.612366,285.767883 
	C475.482880,285.884460 473.943726,285.968750 472.295654,286.058960 
	C472.295654,291.070648 472.203705,295.558411 472.323334,300.040558 
	C472.428070,303.964233 474.208405,307.097504 478.353943,307.308044 
	C482.509094,307.519073 486.711914,306.792480 490.864319,306.479095 
	C490.864319,299.674194 490.864319,292.920990 490.864319,285.982056 
	C489.156342,285.982056 487.708588,285.982056 486.001617,285.982056 
	C485.906860,287.459808 485.824249,288.748932 485.740601,290.905914 
M519.352234,297.452454 
	C522.800476,302.851379 523.252808,308.330994 519.456116,314.347137 
	C521.920654,313.894379 524.422302,313.376648 525.068542,311.992615 
	C528.977356,303.620667 532.462158,295.050720 536.349487,285.935394 
	C527.037659,285.195557 530.015991,294.622498 525.660400,297.347015 
	C521.160156,294.537567 524.244202,284.451691 514.393311,286.053680 
	C516.033386,289.845490 517.529419,293.304352 519.352234,297.452454 
M229.538757,286.882568 
	C224.497086,284.110931 220.081497,285.347229 215.982162,289.532013 
	C217.686600,290.240326 219.476700,290.576721 221.083191,290.176361 
	C225.650269,289.038239 227.051010,290.050568 226.723984,294.379395 
	C223.766510,295.215637 220.565643,295.483276 218.170975,297.012939 
	C216.460251,298.105713 214.576813,301.262421 215.038940,302.828979 
	C215.611130,304.768494 218.417389,307.118927 220.457687,307.325623 
	C224.325287,307.717407 228.334778,306.708679 232.648956,306.242432 
	C232.648956,303.778442 232.966446,300.925842 232.570572,298.175934 
	C232.046402,294.534668 230.964310,290.973755 229.538757,286.882568 
M294.509155,411.072723 
	C294.442780,400.260986 291.854462,390.032074 286.901459,380.480133 
	C286.160248,379.050720 283.709045,378.507996 282.048889,377.555084 
	C281.831696,379.420410 280.852448,381.635162 281.521484,383.094086 
	C285.735291,392.282959 288.001801,401.835724 288.430908,411.927673 
	C288.495911,413.457153 290.251160,414.914764 291.224609,416.405640 
	C292.318939,414.908752 293.413269,413.411865 294.509155,411.072723 
M263.350433,302.134064 
	C262.636475,300.635345 261.922546,299.136597 260.836090,296.855896 
	C266.333344,296.855896 270.748688,296.855896 275.095734,296.855896 
	C275.751129,290.523285 273.645630,287.006958 268.795380,285.798828 
	C263.725922,284.536041 258.901306,286.831848 256.844238,291.485748 
	C254.529541,296.722473 256.365601,303.327881 260.892303,306.048950 
	C265.483459,308.808838 271.553680,307.758972 275.612091,302.824738 
	C273.620667,302.670715 272.211853,302.475128 270.802704,302.472656 
	C268.556702,302.468689 266.310455,302.593231 263.350433,302.134064 
M401.256683,287.660095 
	C396.214050,293.222809 396.241180,301.198914 401.316620,305.276855 
	C405.946442,308.996765 413.392792,308.053436 417.184296,302.092560 
	C414.526093,302.462952 412.804840,302.557098 411.158813,302.959198 
	C406.021973,304.214081 403.639465,302.498627 403.592224,296.904816 
	C407.987701,296.904816 412.388428,296.904816 418.681519,296.904816 
	C416.585785,292.932648 415.680817,289.424957 413.439209,287.388641 
	C410.071411,284.329224 405.760284,284.960724 401.256683,287.660095 
M134.842728,288.319458 
	C130.323486,294.594452 131.059967,302.364197 136.507736,305.885223 
	C141.250519,308.950500 148.012924,307.724854 151.453247,302.059387 
	C148.830154,302.444824 147.100876,302.561737 145.442581,302.968231 
	C140.386765,304.207642 138.003922,302.494629 137.800797,296.904236 
	C142.218430,296.904236 146.628448,296.904236 151.164032,296.904236 
	C151.887253,292.537750 150.941452,289.144836 147.478561,287.010101 
	C143.383392,284.485596 139.256027,284.994843 134.842728,288.319458 
M459.930786,280.487610 
	C458.859802,282.875000 457.788818,285.262360 456.498749,288.138184 
	C462.308868,292.846741 457.130890,300.492920 459.546021,306.981506 
	C460.984161,306.981506 462.555939,306.981506 464.550903,306.981506 
	C464.550903,301.302765 464.550903,295.886963 464.550903,290.576355 
	C469.384430,289.572174 469.384430,289.572174 469.142151,286.246582 
	C467.605286,286.023712 466.049774,285.798126 462.790009,285.325378 
	C465.008606,283.141571 466.327454,281.875061 467.608368,280.571228 
	C468.439453,279.725281 469.215088,278.824829 470.015564,277.948761 
	C468.898315,277.460602 467.566742,276.325104 466.705475,276.610229 
	C464.458954,277.353912 462.418427,278.719879 459.930786,280.487610 
M431.267303,295.115234 
	C430.793549,294.958313 430.220581,294.920685 429.863373,294.623657 
	C428.402496,293.408691 427.007477,292.114532 425.588196,290.849548 
	C427.363556,290.543976 429.137939,290.232574 430.914581,289.934753 
	C432.267456,289.708008 433.623169,289.498535 435.887085,289.135529 
	C431.740906,284.971954 427.776459,284.548706 424.061798,286.423370 
	C422.225372,287.350159 420.397797,290.023987 420.181671,292.077393 
	C419.710785,296.551575 423.812378,297.307129 426.977570,298.764038 
	C428.252228,299.350769 429.128815,300.802185 430.186584,301.860046 
	C428.478912,302.377747 426.702850,303.466949 425.080353,303.272858 
	C422.903107,303.012329 420.676056,301.151093 419.424683,306.114319 
	C422.930542,306.500244 426.368011,307.622864 429.424438,306.967743 
	C431.666931,306.487122 434.423248,303.969360 435.049805,301.808411 
	C435.537598,300.126007 433.096283,297.594360 431.267303,295.115234 
M447.936279,289.492706 
	C449.701904,289.492706 451.467560,289.492706 453.233185,289.492706 
	C449.852692,284.977173 445.804108,284.472107 441.918976,286.636902 
	C440.226532,287.579956 438.626068,290.146027 438.469849,292.094147 
	C438.109985,296.582062 442.130890,297.320251 445.330414,298.740448 
	C446.608154,299.307678 447.463623,300.826233 448.511292,301.911743 
	C446.793457,302.406403 444.984833,303.511200 443.376282,303.271729 
	C439.771698,302.735168 439.812225,302.462891 438.264893,304.926483 
	C442.492889,307.932281 446.840424,308.746582 450.178467,306.239899 
	C451.902283,304.945374 453.453552,302.330444 453.579529,300.222290 
	C453.854889,295.615051 449.453125,295.373596 446.401886,293.915344 
	C445.348663,293.411957 444.597870,292.275726 443.708923,291.428558 
	C444.846436,290.731720 445.983948,290.034851 447.936279,289.492706 
M367.595184,132.071991 
	C362.856812,136.897400 363.037048,142.973343 368.043823,145.989487 
	C371.678040,148.178787 375.253784,147.623322 378.124146,144.829071 
	C381.211578,141.823532 381.641174,137.995468 379.168823,134.369217 
	C376.428223,130.349594 372.621063,129.599701 367.595184,132.071991 
M292.871246,69.344421 
	C295.459167,65.679413 296.046204,61.569847 292.831329,58.430271 
	C291.023560,56.664875 287.156219,55.274296 285.022125,56.019936 
	C282.404449,56.934509 279.537384,59.967014 278.827759,62.630051 
	C278.242462,64.826660 279.979706,68.521812 281.867859,70.299240 
	C284.987335,73.235748 288.918579,72.531898 292.871246,69.344421 
M364.070374,293.109802 
	C365.395569,289.414368 368.134552,289.418121 371.377655,290.045502 
	C372.743225,290.309662 374.277344,289.702393 376.937073,289.317108 
	C369.975647,284.229919 363.589783,284.708801 360.087982,289.382446 
	C356.578033,294.067017 357.532593,302.235016 361.986786,305.630127 
	C366.220825,308.857513 372.304504,307.964386 376.300781,303.033264 
	C374.862915,302.688873 373.654572,302.016693 372.604462,302.208923 
	C364.747559,303.647217 363.002136,302.056824 364.070374,293.109802 
M250.397491,302.287598 
	C247.993057,302.071045 243.782806,302.413696 243.511215,301.536652 
	C242.568314,298.491760 242.441788,294.886627 243.209671,291.793762 
	C243.462738,290.774506 247.357864,290.586273 249.615021,290.164581 
	C251.022064,289.901733 252.480377,289.913361 255.097778,289.709930 
	C248.981827,284.345734 242.741257,284.388672 238.855545,288.695282 
	C235.111115,292.845337 235.253387,300.658722 239.146530,304.676880 
	C243.116302,308.774139 249.336868,308.486115 254.568420,303.450867 
	C253.232620,302.899902 252.175034,302.463684 250.397491,302.287598 
M379.043213,302.362946 
	C383.865234,308.836700 390.962402,309.379761 396.133942,302.652954 
	C394.047089,302.652954 392.673523,302.786926 391.336456,302.623016 
	C389.064301,302.344482 385.204834,302.414825 384.862946,301.388794 
	C383.897064,298.490051 383.681458,294.881317 384.616333,292.025879 
	C385.014435,290.809937 389.001526,290.728424 391.375885,290.216003 
	C392.715851,289.926819 394.092957,289.809723 396.585968,289.453064 
	C390.836945,284.903290 385.960663,284.475922 382.011627,287.229004 
	C378.015808,290.014679 376.875000,295.015747 379.043213,302.362946 
M183.834869,199.418594 
	C186.928268,195.801743 187.714386,191.546921 184.269699,188.286423 
	C182.266006,186.389847 178.312546,185.267273 175.561874,185.730179 
	C170.756897,186.538849 168.734512,192.224869 170.738983,196.864685 
	C172.784851,201.600281 177.378632,202.710754 183.834869,199.418594 
M501.646729,288.518738 
	C501.646729,284.557983 501.646729,280.597229 501.646729,276.365295 
	C499.571259,276.365295 498.000031,276.365295 496.169708,276.365295 
	C496.169708,286.684540 496.169708,296.744781 496.169708,306.892212 
	C498.116302,306.892212 499.812622,306.892212 501.646484,306.892212 
	C501.646484,300.819122 501.646484,295.165924 501.646729,288.518738 
M506.251129,288.519043 
	C506.251129,294.620148 506.251129,300.721283 506.251129,307.061279 
	C508.325073,307.061279 509.908112,307.061279 511.689331,307.061279 
	C511.689331,296.764771 511.689331,286.716675 511.689331,276.378784 
	C509.853516,276.378784 508.297852,276.378784 506.251282,276.378784 
	C506.251282,280.280792 506.251282,283.905701 506.251129,288.519043 
M361.877777,398.603638 
	C368.549988,395.294983 369.853424,388.235962 364.448151,384.542053 
	C361.371185,382.439331 357.736053,382.097260 355.377930,384.800568 
	C353.584320,386.856720 352.306122,390.408600 352.655487,393.049408 
	C353.217468,397.297516 356.766235,399.129761 361.877777,398.603638 
M95.866508,285.822235 
	C95.331131,286.501862 94.344055,287.172821 94.330864,287.862396 
	C94.210754,294.140533 94.260361,300.421906 94.260361,306.912964 
	C96.181290,306.912964 97.723755,306.912964 99.563255,306.912964 
	C99.563255,303.093170 99.500145,299.620117 99.582680,296.150513 
	C99.652031,293.234711 100.569633,290.764679 104.045097,290.706573 
	C107.689812,290.645691 107.424637,288.523376 106.894859,285.794678 
	C103.411804,285.794678 100.050819,285.794678 95.866508,285.822235 
M155.100952,302.203186 
	C155.178955,303.790649 155.256973,305.378113 155.353317,307.338715 
	C157.355316,307.177704 158.909500,307.052704 160.587784,306.917725 
	C160.587784,303.090973 160.590271,299.767212 160.587067,296.443420 
	C160.584015,293.275421 161.477585,290.779327 165.207886,290.630554 
	C168.970978,290.480408 168.255081,288.220917 167.969681,286.487579 
	C163.459763,286.487579 159.412949,286.487579 155.100983,286.487579 
	C155.100983,291.349823 155.100983,296.313293 155.100952,302.203186 
M211.029709,286.538727 
	C211.029282,284.373657 210.900558,282.199310 211.056274,280.045532 
	C211.342514,276.086273 209.602646,275.454926 206.291931,276.795258 
	C206.291931,286.886200 206.291931,296.805878 206.291931,307.131439 
	C207.967880,307.028595 209.341736,306.944275 211.029724,306.840698 
	C211.029724,300.134918 211.029724,293.831451 211.029709,286.538727 
M233.983917,377.329590 
	C230.177628,376.663544 227.341965,378.026031 226.302628,381.774963 
	C225.350830,385.208221 226.591629,387.999878 230.110062,389.360046 
	C233.379196,390.623871 236.138992,389.602234 237.722961,386.656067 
	C239.795090,382.801941 238.658081,379.645691 233.983917,377.329590 
M161.540924,171.863220 
	C159.674149,173.751175 157.512695,175.442810 156.067719,177.611771 
	C155.369156,178.660309 155.415436,181.248886 156.203705,181.985962 
	C157.242706,182.957458 159.717804,183.542816 160.902664,182.949814 
	C162.876480,181.961990 164.587341,180.096207 165.887772,178.235809 
	C166.798721,176.932617 167.696243,174.408600 167.066315,173.533005 
	C166.192780,172.318787 163.880722,172.139465 161.540924,171.863220 
M288.934387,79.321709 
	C289.577698,80.992058 289.819855,83.593597 290.969391,84.088799 
	C292.301178,84.662521 294.626160,83.717499 296.158264,82.816597 
	C297.668518,81.928558 299.160980,80.464386 299.857971,78.896004 
	C300.526459,77.391678 300.164032,75.429176 300.254639,73.668030 
	C298.328491,73.571434 296.020599,72.765495 294.567352,73.547600 
	C292.485107,74.668228 291.026855,76.948334 288.934387,79.321709 
M224.657135,109.179939 
	C226.729248,107.093781 228.965714,104.863518 225.847122,102.104988 
	C223.077454,99.655106 220.992599,101.771149 219.063400,103.730957 
	C218.014954,104.796028 216.481339,105.704178 216.054764,106.980057 
	C215.514389,108.596413 215.162033,111.278603 216.039749,112.099960 
	C217.029327,113.025993 219.561890,112.737953 221.260010,112.317848 
	C222.376526,112.041618 223.204102,110.597427 224.657135,109.179939 
M409.278381,109.918694 
	C410.441711,108.748322 412.067200,107.768631 412.649078,106.358368 
	C413.345490,104.670494 413.150299,102.614769 413.341248,100.718353 
	C411.286469,100.763733 409.093170,100.384232 407.222382,100.994064 
	C405.821899,101.450584 404.393219,102.987503 403.777435,104.393822 
	C402.976227,106.223572 402.967560,108.400368 402.617828,110.427818 
	C404.662598,110.425209 406.707397,110.422600 409.278381,109.918694 
M261.176971,70.951416 
	C262.678375,69.423630 264.610413,68.116898 265.544189,66.297745 
	C266.284546,64.855415 266.531311,62.053898 265.665741,61.190018 
	C264.713989,60.240112 262.044159,60.293652 260.482239,60.875191 
	C258.922577,61.455864 257.451080,63.028572 256.594086,64.537354 
	C255.663651,66.175446 255.486359,68.241333 254.980637,70.120667 
	C256.842163,70.542610 258.703705,70.964546 261.176971,70.951416 
M389.719940,389.400085 
	C384.843567,385.734894 383.733948,391.185608 381.312347,393.105499 
	C380.801971,393.510162 381.166321,396.308716 381.905396,396.777130 
	C385.244690,398.893524 386.956116,395.853607 388.701202,393.876251 
	C389.542084,392.923492 389.624573,391.301422 389.719940,389.400085 
M267.213379,396.547516 
	C266.878601,395.127869 266.964691,393.212708 266.069763,392.452576 
	C265.408234,391.890686 263.016205,392.377838 262.189880,393.198181 
	C260.302399,395.071930 256.140503,396.917908 259.261414,400.225159 
	C262.154419,403.290863 264.060760,399.478760 266.088745,397.839203 
	C266.343750,397.633087 266.546539,397.362335 267.213379,396.547516 
M273.548737,99.177055 
	C274.311035,101.029655 274.760925,103.160255 276.017792,104.572800 
	C276.417358,105.021881 279.460815,103.961113 280.365814,102.840973 
	C281.043060,102.002708 280.525940,98.787918 280.029388,98.662949 
	C278.120544,98.182579 276.005829,98.520393 273.548737,99.177055 
M246.903580,181.478668 
	C244.980698,182.188644 242.929138,182.699677 241.249573,183.785904 
	C240.934891,183.989426 241.722275,187.261993 242.689590,187.748077 
	C243.990570,188.401794 247.084381,188.235275 247.411789,187.514160 
	C248.121063,185.952026 247.561401,183.813751 246.903580,181.478668 
M352.486298,112.620667 
	C350.461121,112.437286 348.401978,112.008423 346.439758,112.279900 
	C346.052277,112.333496 345.418182,115.440750 346.023865,116.489357 
	C346.640900,117.557610 349.495483,118.677956 349.890503,118.285599 
	C351.240784,116.944450 351.940308,114.948120 352.486298,112.620667 
M345.911865,128.466904 
	C345.426300,126.529846 345.239899,124.416618 344.267822,122.766075 
	C343.986420,122.288208 340.939484,122.642914 340.093292,123.518028 
	C339.249725,124.390450 339.069305,127.523926 339.478394,127.707802 
	C341.262421,128.509705 343.366913,128.598648 345.911865,128.466904 
M381.540985,174.086548 
	C379.644562,174.785843 377.645081,175.318390 375.960175,176.359909 
	C375.700195,176.520584 376.517883,179.778152 377.491577,180.248306 
	C378.792328,180.876343 381.862793,180.663010 382.166290,179.953064 
	C382.827667,178.405945 382.219879,176.316284 381.540985,174.086548 
M372.014435,183.149139 
	C370.239777,184.144867 368.353424,185.005768 366.811920,186.282913 
	C366.582886,186.472672 367.749634,189.417923 368.676117,189.685760 
	C370.143372,190.109940 371.953125,189.349350 373.617950,189.090073 
	C373.306061,187.224350 372.994171,185.358643 372.014435,183.149139 
M266.635071,90.191200 
	C267.875366,91.314156 269.064117,93.247398 270.370575,93.330528 
	C271.658539,93.412476 273.887878,91.821884 274.187622,90.594650 
	C274.482819,89.386215 273.223724,86.937035 272.031586,86.401581 
	C269.363708,85.203293 267.316376,86.558968 266.635071,90.191200 
M250.456192,192.184067 
	C251.216904,194.041534 251.684219,196.150131 252.923462,197.598007 
	C253.278793,198.013153 256.236603,196.870773 257.288208,195.764740 
	C257.903381,195.117706 257.405975,192.078461 256.896545,191.934967 
	C255.015488,191.405106 252.920883,191.633377 250.456192,192.184067 
M309.597321,345.236603 
	C309.664307,343.804413 310.229675,342.076050 309.618195,341.046997 
	C309.228302,340.390869 306.975708,340.421600 305.791229,340.826233 
	C305.152069,341.044617 304.492584,343.425018 304.717041,343.582489 
	C305.990662,344.475525 307.528625,344.991638 309.597321,345.236603 
M308.278198,355.827789 
	C308.980713,354.442963 309.683228,353.058136 310.385742,351.673340 
	C309.271149,351.161041 308.141266,350.231323 307.046906,350.271332 
	C306.203827,350.302216 304.607117,351.991150 304.715759,352.188477 
	C305.456024,353.533203 306.559296,354.678070 308.278198,355.827789 
M253.089417,354.927795 
	C254.748672,357.464630 256.806915,357.673615 258.528534,355.292969 
	C259.031433,354.597534 258.459991,352.125549 257.691772,351.693573 
	C255.145096,350.261627 253.348755,351.273590 253.089417,354.927795 
M260.813507,359.010864 
	C260.856506,360.395752 260.416840,362.158478 261.105408,363.037994 
	C261.597443,363.666473 263.743744,363.438049 264.878113,362.952393 
	C265.505859,362.683655 265.970276,360.303131 265.826599,360.230896 
	C264.421997,359.524933 262.873566,359.105225 260.813507,359.010864 
z"/>
<path fill="#FFD134" opacity="1.000000" stroke="none" 
	d="
M291.889282,175.128403 
	C294.422852,173.543350 297.111877,172.398743 298.527161,170.366882 
	C300.784149,167.126663 302.033844,163.205246 304.004425,159.739594 
	C306.174408,155.923172 309.995667,155.928162 312.171722,159.755203 
	C314.059692,163.075562 315.661163,166.571213 317.208099,170.069489 
	C318.625427,173.274750 320.760376,174.982773 324.413635,175.204788 
	C327.879333,175.415390 331.348450,176.087204 334.739594,176.882324 
	C339.382935,177.971069 340.523804,181.385986 337.423553,184.955719 
	C335.027954,187.714111 332.414307,190.309952 329.695496,192.753189 
	C327.039825,195.139679 326.321289,197.863968 327.032166,201.274979 
	C327.777863,204.853210 328.472687,208.468918 328.789612,212.103134 
	C329.232910,217.187515 326.213623,219.247101 321.618011,217.086044 
	C318.612427,215.672699 315.700531,214.035599 312.845764,212.332611 
	C309.696716,210.454086 306.776459,210.180710 303.529541,212.285492 
	C300.608887,214.178787 297.455994,215.756210 294.285614,217.211655 
	C289.980804,219.187866 286.969360,217.067596 287.269196,212.351700 
	C287.384552,210.537857 287.641693,208.673309 288.213715,206.958450 
	C290.801361,199.200958 288.706329,193.222763 282.199036,188.240982 
	C279.663483,186.299850 275.254547,183.743820 277.663879,179.975388 
	C279.124115,177.691483 283.456818,177.159698 286.575195,176.056168 
	C288.119019,175.509857 289.835144,175.450470 291.889282,175.128403 
z"/>
<path fill="#FFD135" opacity="1.000000" stroke="none" 
	d="
M434.746521,197.802277 
	C433.380676,199.714615 432.342102,201.459000 430.976257,202.891251 
	C428.334259,205.661575 428.014648,208.635803 429.467712,212.052612 
	C430.180511,213.728622 430.708893,215.498734 431.159607,217.267334 
	C432.168457,221.226242 430.376129,223.041031 426.480286,222.092606 
	C425.996948,221.974915 425.481995,221.877014 425.060028,221.633942 
	C419.114960,218.209320 413.903503,218.933777 408.998993,223.878952 
	C407.856903,225.030518 405.307617,225.664185 403.778992,225.228043 
	C402.850494,224.963120 401.970428,222.082855 402.216705,220.563568 
	C403.369049,213.454803 401.025452,208.400925 394.628662,204.956741 
	C393.294891,204.238617 391.771240,201.998688 392.001404,200.773026 
	C392.235687,199.525665 394.411560,198.017441 395.937103,197.745697 
	C402.787781,196.525528 406.790314,192.903076 407.946655,185.880096 
	C408.214722,184.252151 409.869995,182.245560 411.373016,181.659256 
	C412.252563,181.316177 414.775238,183.132828 415.386658,184.501511 
	C418.437988,191.331955 423.609619,193.223724 430.657715,192.469223 
	C433.565613,192.157928 436.617920,193.182953 434.746521,197.802277 
z"/>
<path fill="#FFD135" opacity="1.000000" stroke="none" 
	d="
M201.625916,197.640564 
	C200.607361,194.931717 199.602600,192.630356 198.904037,190.239548 
	C197.925964,186.892090 199.512360,185.197159 202.970642,185.680161 
	C203.463120,185.748932 203.987793,185.819733 204.421814,186.039307 
	C210.744217,189.237991 216.073685,188.055145 220.849564,182.819199 
	C221.868805,181.701767 224.355179,180.829941 225.585693,181.315292 
	C226.739670,181.770477 227.892410,184.264481 227.720322,185.702713 
	C226.856964,192.918533 229.478592,197.839081 236.072769,200.975494 
	C237.394135,201.603989 238.683090,203.679733 238.730927,205.129623 
	C238.763702,206.123230 236.760834,207.822479 235.427628,208.116486 
	C228.112930,209.729492 224.442673,214.148102 223.732773,221.525803 
	C223.605286,222.850891 222.135406,224.773224 220.953491,225.062088 
	C219.816299,225.340027 218.132584,224.013763 216.909500,223.097885 
	C216.014877,222.427933 215.351227,221.349304 214.802460,220.335007 
	C212.333206,215.770996 208.693573,214.051163 203.617508,215.418747 
	C202.669525,215.674164 201.630096,215.690018 200.637268,215.661850 
	C196.203949,215.536133 194.942169,213.385239 197.118820,209.522598 
	C198.261063,207.495605 199.928558,205.726501 200.833038,203.615646 
	C201.558487,201.922592 201.491608,199.890030 201.625916,197.640564 
z"/>
<path fill="#677DC1" opacity="1.000000" stroke="none" 
	d="
M225.201050,60.902473 
	C226.342514,59.180012 227.532883,56.740299 228.703308,56.749836 
	C230.227539,56.762245 232.290161,58.393661 233.165390,59.888084 
	C241.822861,74.670212 250.284302,89.567162 258.795532,104.434875 
	C259.786133,106.165260 261.250061,107.830223 261.560791,109.682167 
	C261.831390,111.295044 261.282349,113.990639 260.179749,114.630959 
	C259.005768,115.312752 256.251099,114.696892 255.096771,113.646927 
	C253.457520,112.155899 252.634674,109.759018 251.489929,107.733971 
	C242.736633,92.249550 233.989883,76.761421 225.201050,60.902473 
z"/>
<path fill="#6CD696" opacity="1.000000" stroke="none" 
	d="
M368.740784,88.812004 
	C366.718384,92.289024 365.201508,95.726456 362.871857,98.474915 
	C361.708954,99.846855 359.059875,99.959084 357.083008,100.641098 
	C356.748230,98.608521 355.444153,96.040100 356.226410,94.625069 
	C365.474915,77.895645 374.951477,61.289169 384.666748,44.826633 
	C385.475708,43.455902 388.793121,42.359024 390.344482,42.889931 
	C393.359009,43.921532 392.847900,46.506306 391.379120,49.055923 
	C383.827820,62.164291 376.388977,75.337456 368.740784,88.812004 
z"/>
<path fill="#FFAF0F" opacity="1.000000" stroke="none" 
	d="
M418.665222,142.697052 
	C411.600494,150.017960 404.798187,157.098434 397.966797,164.150757 
	C395.928680,166.254776 393.653900,168.461044 390.765564,165.699738 
	C387.999939,163.055786 390.166565,160.891800 392.068726,158.932129 
	C404.703339,145.915573 417.350708,132.911407 429.997131,119.906364 
	C432.072723,117.771904 434.374512,115.663872 437.176025,118.525604 
	C439.842926,121.249771 437.528839,123.353981 435.651642,125.288040 
	C430.087280,131.020935 424.496765,136.728409 418.665222,142.697052 
z"/>
<path fill="#FF586A" opacity="1.000000" stroke="none" 
	d="
M211.774384,156.245316 
	C203.982697,148.259979 196.430832,140.533844 188.904785,132.782639 
	C187.018753,130.840164 184.761536,128.612091 187.338089,125.977753 
	C190.026382,123.229172 192.457291,125.173958 194.562057,127.343987 
	C207.289368,140.465988 220.015350,153.589294 232.755020,166.699280 
	C234.643005,168.642166 236.314590,171.135376 233.664093,172.980743 
	C232.324951,173.913101 228.695251,173.392639 227.354492,172.162766 
	C221.977753,167.230759 217.091431,161.764175 211.774384,156.245316 
z"/>
<path fill="#FF5E6F" opacity="1.000000" stroke="none" 
	d="
M352.990387,353.814301 
	C354.999329,354.104279 356.672089,354.558838 358.344788,355.013428 
	C357.463531,356.416412 356.907410,358.298157 355.652252,359.150513 
	C337.216492,371.669342 327.966705,389.078674 327.150116,411.259644 
	C327.085510,413.013397 325.177185,415.972900 323.833069,416.149872 
	C320.702423,416.562225 320.549072,413.676514 320.689209,411.220428 
	C322.073059,386.963562 331.807220,367.367950 352.990387,353.814301 
z"/>
<path fill="#434242" opacity="1.000000" stroke="none" 
	d="
M65.122795,303.939697 
	C59.609890,297.700989 58.538303,290.709595 61.884304,284.417419 
	C64.940887,278.669464 71.254272,275.758270 78.450264,276.984497 
	C84.196632,277.963684 88.205505,281.310211 89.843742,286.890137 
	C91.639877,293.007874 90.912743,298.938477 86.047958,303.478088 
	C81.231461,307.972626 75.378120,308.477509 69.294937,306.347290 
	C67.913742,305.863617 66.697128,304.909973 65.122795,303.939697 
M84.856094,291.599640 
	C84.769348,290.942688 84.737991,290.272736 84.587242,289.630798 
	C83.190750,283.684296 79.541039,280.997345 73.910820,281.745392 
	C68.640182,282.445587 65.890297,286.179474 65.993454,292.495789 
	C66.092133,298.536804 69.247932,302.263245 74.632774,302.697266 
	C80.298477,303.153931 83.677666,299.759918 84.856094,291.599640 
z"/>
<path fill="#474646" opacity="1.000000" stroke="none" 
	d="
M110.325203,304.557800 
	C109.446327,301.553406 108.245720,298.846161 108.258278,296.144562 
	C108.295578,288.119568 112.679291,284.998779 122.333252,285.908325 
	C122.476509,282.811646 122.619225,279.726715 122.771622,276.432251 
	C124.621826,276.432251 126.190018,276.432251 127.943466,276.432251 
	C127.943466,286.648895 127.943466,296.567719 127.943466,307.614563 
	C122.339478,303.516266 115.816864,310.904510 110.325203,304.557800 
M114.090088,293.205536 
	C114.057861,295.347931 113.433258,297.730927 114.175697,299.558655 
	C114.800552,301.096893 117.082581,302.987610 118.507835,302.891663 
	C119.984535,302.792297 121.604454,300.672058 122.597214,299.083008 
	C123.194992,298.126160 122.989861,296.422363 122.656151,295.186340 
	C122.153542,293.324677 121.222610,291.578705 120.473755,289.783569 
	C118.423363,290.661713 116.372971,291.539886 114.090088,293.205536 
z"/>
<path fill="#474646" opacity="1.000000" stroke="none" 
	d="
M282.265686,287.167938 
	C285.698059,286.371002 288.828003,285.796173 292.461334,285.128906 
	C292.574341,282.736328 292.719666,279.659302 292.875122,276.368286 
	C294.629852,276.368286 296.069672,276.368286 297.867432,276.368286 
	C297.867432,286.521454 297.867432,296.545654 297.867432,306.407043 
	C293.663483,306.726044 289.418121,307.439240 285.210785,307.259827 
	C280.806427,307.072021 277.761322,302.683624 278.348175,296.806824 
	C278.670441,293.579773 280.702271,290.523407 282.265686,287.167938 
M285.211273,291.045227 
	C284.812317,293.929596 283.866455,296.868591 284.147705,299.685059 
	C284.531677,303.530975 287.542816,303.787140 290.567322,302.642975 
	C292.626221,301.864166 294.138031,294.384644 292.586090,291.638153 
	C290.967041,288.772949 288.377136,288.834229 285.211273,291.045227 
z"/>
<path fill="#434242" opacity="1.000000" stroke="none" 
	d="
M180.879639,284.168365 
	C180.879883,281.703552 180.879883,279.714417 180.879883,277.451019 
	C185.670624,277.451019 190.293472,276.952332 194.758041,277.579773 
	C200.099655,278.330414 202.669891,281.980469 202.525635,286.982269 
	C202.384308,291.882996 199.546494,295.154236 194.315201,296.156311 
	C192.045959,296.590973 189.707550,296.664459 186.579834,296.986511 
	C186.579834,298.515472 186.579834,300.094055 186.579834,301.672638 
	C186.579834,303.311340 186.579834,304.950073 186.579834,306.977722 
	C184.690948,307.075439 183.105621,307.157471 180.879395,307.272675 
	C180.879395,299.501648 180.879395,292.072845 180.879639,284.168365 
M196.789520,286.547089 
	C195.281860,281.589905 193.446854,280.683563 186.710602,281.740234 
	C186.710602,285.066925 186.710602,288.432404 186.710602,292.011353 
	C191.073547,292.041656 195.579636,293.302399 196.789520,286.547089 
z"/>
<path fill="#434242" opacity="1.000000" stroke="none" 
	d="
M331.631989,300.808441 
	C327.353088,308.759644 318.727905,309.806946 312.003296,303.469940 
	C312.760040,300.653198 314.142426,299.551758 317.012115,301.313293 
	C318.249207,302.072632 319.922394,302.993103 321.137787,302.713135 
	C322.988403,302.286804 324.613190,300.880371 326.333862,299.890137 
	C325.337250,298.248413 324.645233,296.247345 323.255493,295.069366 
	C321.951752,293.964264 319.904266,293.745483 318.194427,293.108856 
	C314.233154,291.634003 312.395477,288.717255 312.867401,284.574554 
	C313.335724,280.463318 315.911621,277.546448 319.850586,277.199371 
	C323.564819,276.872070 327.399963,277.916901 331.578369,278.404388 
	C330.606293,282.427795 329.597137,284.019775 326.516663,282.364227 
	C325.516296,281.826599 324.140167,281.158569 323.232788,281.455963 
	C321.518524,282.017822 320.019409,283.236053 318.430878,284.181488 
	C319.342987,285.563141 320.004150,287.262329 321.237671,288.237305 
	C322.474152,289.214661 324.296082,289.433624 325.836609,290.047241 
	C331.235687,292.197815 332.457520,294.370148 331.631989,300.808441 
z"/>
<path fill="#FFD135" opacity="1.000000" stroke="none" 
	d="
M315.191223,122.128235 
	C309.621063,126.728981 304.478271,126.811989 300.302399,122.643379 
	C296.275330,118.623230 295.999512,112.481178 299.654816,108.221802 
	C303.322052,103.948532 308.943481,103.235939 313.496490,106.467171 
	C318.450134,109.982742 319.184082,115.769440 315.191223,122.128235 
z"/>
<path fill="#7084C4" opacity="1.000000" stroke="none" 
	d="
M304.376770,378.046814 
	C304.384613,374.724243 304.038574,371.827454 304.546844,369.089233 
	C304.805786,367.694092 306.599792,366.583862 307.699921,365.344849 
	C308.735382,366.610504 310.652557,367.863159 310.671417,369.143738 
	C310.884735,383.630585 310.882843,398.122772 310.679749,412.609894 
	C310.661346,413.924500 308.848022,415.213928 307.868225,416.515045 
	C306.705322,415.015045 304.573944,413.540131 304.534332,412.011047 
	C304.245636,400.859528 304.377411,389.697144 304.376770,378.046814 
z"/>
<path fill="#4A4949" opacity="1.000000" stroke="none" 
	d="
M335.820435,286.346130 
	C337.526184,286.063721 338.953094,286.063721 340.771637,286.063721 
	C340.771637,290.539429 340.693573,294.668060 340.800415,298.791931 
	C340.866455,301.340668 341.824707,303.908905 344.835480,302.998535 
	C346.487732,302.498901 348.473419,300.245117 348.725098,298.547485 
	C349.302155,294.654938 348.907715,290.618378 348.907715,286.123535 
	C350.599823,285.997650 352.142517,285.882904 353.994446,285.745148 
	C353.994446,293.011169 353.994446,299.895905 353.994446,306.449036 
	C350.003723,306.836731 346.273804,307.382263 342.529388,307.513245 
	C338.478699,307.654968 335.645874,304.701752 335.460022,300.082489 
	C335.279938,295.606201 335.498260,291.113861 335.820435,286.346130 
z"/>
<path fill="#4A4949" opacity="1.000000" stroke="none" 
	d="
M485.741089,290.471985 
	C485.824249,288.748932 485.906860,287.459808 486.001617,285.982056 
	C487.708588,285.982056 489.156342,285.982056 490.864319,285.982056 
	C490.864319,292.920990 490.864319,299.674194 490.864319,306.479095 
	C486.711914,306.792480 482.509094,307.519073 478.353943,307.308044 
	C474.208405,307.097504 472.428070,303.964233 472.323334,300.040558 
	C472.203705,295.558411 472.295654,291.070648 472.295654,286.058960 
	C473.943726,285.968750 475.482880,285.884460 477.612366,285.767883 
	C477.612366,290.320709 477.557312,294.426666 477.632965,298.530273 
	C477.678711,301.013367 478.221649,303.373596 481.437134,303.226288 
	C484.385651,303.091248 485.952057,301.549561 485.767853,298.384705 
	C485.623199,295.899658 485.739960,293.399414 485.741089,290.471985 
z"/>
<path fill="#4A4949" opacity="1.000000" stroke="none" 
	d="
M519.188843,297.107849 
	C517.529419,293.304352 516.033386,289.845490 514.393311,286.053680 
	C524.244202,284.451691 521.160156,294.537567 525.659180,297.348358 
	C530.015991,294.622498 527.037659,285.195557 536.349487,285.935394 
	C532.462158,295.050720 528.977356,303.620667 525.068542,311.992615 
	C524.422302,313.376648 521.920654,313.894379 519.456116,314.347137 
	C523.252808,308.330994 522.800476,302.851379 519.188843,297.107849 
z"/>
<path fill="#4A4949" opacity="1.000000" stroke="none" 
	d="
M229.830368,287.130432 
	C230.964310,290.973755 232.046402,294.534668 232.570572,298.175934 
	C232.966446,300.925842 232.648956,303.778442 232.648956,306.242432 
	C228.334778,306.708679 224.325287,307.717407 220.457687,307.325623 
	C218.417389,307.118927 215.611130,304.768494 215.038940,302.828979 
	C214.576813,301.262421 216.460251,298.105713 218.170975,297.012939 
	C220.565643,295.483276 223.766510,295.215637 226.723984,294.379395 
	C227.051010,290.050568 225.650269,289.038239 221.083191,290.176361 
	C219.476700,290.576721 217.686600,290.240326 215.982162,289.532013 
	C220.081497,285.347229 224.497086,284.110931 229.830368,287.130432 
M224.946686,303.405426 
	C225.876190,301.921661 226.805710,300.437927 227.735214,298.954163 
	C227.143494,298.409637 226.551773,297.865112 225.960068,297.320587 
	C223.942642,298.785492 221.925232,300.250397 219.907806,301.715271 
	C221.335281,302.383087 222.762756,303.050903 224.946686,303.405426 
z"/>
<path fill="#FFB31B" opacity="1.000000" stroke="none" 
	d="
M294.508362,411.493835 
	C293.413269,413.411865 292.318939,414.908752 291.224609,416.405640 
	C290.251160,414.914764 288.495911,413.457153 288.430908,411.927673 
	C288.001801,401.835724 285.735291,392.282959 281.521484,383.094086 
	C280.852448,381.635162 281.831696,379.420410 282.048889,377.555084 
	C283.709045,378.507996 286.160248,379.050720 286.901459,380.480133 
	C291.854462,390.032074 294.442780,400.260986 294.508362,411.493835 
z"/>
<path fill="#434242" opacity="1.000000" stroke="none" 
	d="
M263.707397,302.398743 
	C266.310455,302.593231 268.556702,302.468689 270.802704,302.472656 
	C272.211853,302.475128 273.620667,302.670715 275.612091,302.824738 
	C271.553680,307.758972 265.483459,308.808838 260.892303,306.048950 
	C256.365601,303.327881 254.529541,296.722473 256.844238,291.485748 
	C258.901306,286.831848 263.725922,284.536041 268.795380,285.798828 
	C273.645630,287.006958 275.751129,290.523285 275.095734,296.855896 
	C270.748688,296.855896 266.333344,296.855896 260.836090,296.855896 
	C261.922546,299.136597 262.636475,300.635345 263.707397,302.398743 
M263.375916,290.139648 
	C262.753998,291.234894 262.132050,292.330139 261.427643,293.570618 
	C265.033661,293.570618 267.838226,293.570618 270.897736,293.570618 
	C269.763458,289.404266 267.441101,288.570923 263.375916,290.139648 
z"/>
<path fill="#434242" opacity="1.000000" stroke="none" 
	d="
M401.549316,287.432007 
	C405.760284,284.960724 410.071411,284.329224 413.439209,287.388641 
	C415.680817,289.424957 416.585785,292.932648 418.681519,296.904816 
	C412.388428,296.904816 407.987701,296.904816 403.592224,296.904816 
	C403.639465,302.498627 406.021973,304.214081 411.158813,302.959198 
	C412.804840,302.557098 414.526093,302.462952 417.184296,302.092560 
	C413.392792,308.053436 405.946442,308.996765 401.316620,305.276855 
	C396.241180,301.198914 396.214050,293.222809 401.549316,287.432007 
M404.766479,290.267334 
	C404.157562,291.305725 403.548676,292.344116 402.749451,293.707031 
	C406.299774,293.707031 409.157440,293.707031 412.395172,293.707031 
	C411.314545,289.408966 409.026093,288.401062 404.766479,290.267334 
z"/>
<path fill="#434242" opacity="1.000000" stroke="none" 
	d="
M135.125519,288.080444 
	C139.256027,284.994843 143.383392,284.485596 147.478561,287.010101 
	C150.941452,289.144836 151.887253,292.537750 151.164032,296.904236 
	C146.628448,296.904236 142.218430,296.904236 137.800797,296.904236 
	C138.003922,302.494629 140.386765,304.207642 145.442581,302.968231 
	C147.100876,302.561737 148.830154,302.444824 151.453247,302.059387 
	C148.012924,307.724854 141.250519,308.950500 136.507736,305.885223 
	C131.059967,302.364197 130.323486,294.594452 135.125519,288.080444 
M141.614380,294.023956 
	C143.218079,294.023956 144.821793,294.023956 146.425491,294.023956 
	C146.665115,293.550903 146.904739,293.077850 147.144348,292.604828 
	C145.645309,291.481445 144.110092,289.411591 142.656113,289.467133 
	C140.708801,289.541595 138.824371,291.261902 136.912949,292.275513 
	C137.120682,292.763336 137.328430,293.251190 137.536179,293.739014 
	C138.624680,293.833893 139.713196,293.928741 141.614380,294.023956 
z"/>
<path fill="#474646" opacity="1.000000" stroke="none" 
	d="
M460.113281,280.162659 
	C462.418427,278.719879 464.458954,277.353912 466.705475,276.610229 
	C467.566742,276.325104 468.898315,277.460602 470.015564,277.948792 
	C469.215088,278.824829 468.439453,279.725281 467.608368,280.571228 
	C466.327454,281.875061 465.008606,283.141571 462.790009,285.325378 
	C466.049774,285.798126 467.605286,286.023712 469.142151,286.246582 
	C469.384430,289.572174 469.384430,289.572174 464.550903,290.576355 
	C464.550903,295.886963 464.550903,301.302765 464.550903,306.981506 
	C462.555939,306.981506 460.984161,306.981506 459.546021,306.981506 
	C457.130890,300.492920 462.308868,292.846741 456.498749,288.138184 
	C457.788818,285.262360 458.859802,282.875000 460.113281,280.162659 
z"/>
<path fill="#474646" opacity="1.000000" stroke="none" 
	d="
M431.612000,295.277710 
	C433.096283,297.594360 435.537598,300.126007 435.049805,301.808411 
	C434.423248,303.969360 431.666931,306.487122 429.424438,306.967743 
	C426.368011,307.622864 422.930542,306.500244 419.424683,306.114319 
	C420.676056,301.151093 422.903107,303.012329 425.080353,303.272858 
	C426.702850,303.466949 428.478912,302.377747 430.186584,301.860046 
	C429.128815,300.802185 428.252228,299.350769 426.977570,298.764038 
	C423.812378,297.307129 419.710785,296.551575 420.181671,292.077393 
	C420.397797,290.023987 422.225372,287.350159 424.061798,286.423370 
	C427.776459,284.548706 431.740906,284.971954 435.887085,289.135529 
	C433.623169,289.498535 432.267456,289.708008 430.914581,289.934753 
	C429.137939,290.232574 427.363556,290.543976 425.588196,290.849548 
	C427.007477,292.114532 428.402496,293.408691 429.863373,294.623657 
	C430.220581,294.920685 430.793549,294.958313 431.612000,295.277710 
z"/>
<path fill="#474646" opacity="1.000000" stroke="none" 
	d="
M447.528870,289.415344 
	C445.983948,290.034851 444.846436,290.731720 443.708923,291.428558 
	C444.597870,292.275726 445.348663,293.411957 446.401886,293.915344 
	C449.453125,295.373596 453.854889,295.615051 453.579529,300.222290 
	C453.453552,302.330444 451.902283,304.945374 450.178467,306.239899 
	C446.840424,308.746582 442.492889,307.932281 438.264893,304.926483 
	C439.812225,302.462891 439.771698,302.735168 443.376282,303.271729 
	C444.984833,303.511200 446.793457,302.406403 448.511292,301.911743 
	C447.463623,300.826233 446.608154,299.307678 445.330414,298.740448 
	C442.130890,297.320251 438.109985,296.582062 438.469849,292.094147 
	C438.626068,290.146027 440.226532,287.579956 441.918976,286.636902 
	C445.804108,284.472107 449.852692,284.977173 453.233185,289.492706 
	C451.467560,289.492706 449.701904,289.492706 447.528870,289.415344 
z"/>
<path fill="#FF586A" opacity="1.000000" stroke="none" 
	d="
M367.925354,131.906616 
	C372.621063,129.599701 376.428223,130.349594 379.168823,134.369217 
	C381.641174,137.995468 381.211578,141.823532 378.124146,144.829071 
	C375.253784,147.623322 371.678040,148.178787 368.043823,145.989487 
	C363.037048,142.973343 362.856812,136.897400 367.925354,131.906616 
z"/>
<path fill="#FF586A" opacity="1.000000" stroke="none" 
	d="
M292.597839,69.620720 
	C288.918579,72.531898 284.987335,73.235748 281.867859,70.299240 
	C279.979706,68.521812 278.242462,64.826660 278.827759,62.630051 
	C279.537384,59.967014 282.404449,56.934509 285.022125,56.019936 
	C287.156219,55.274296 291.023560,56.664875 292.831329,58.430271 
	C296.046204,61.569847 295.459167,65.679413 292.597839,69.620720 
z"/>
<path fill="#4A4949" opacity="1.000000" stroke="none" 
	d="
M363.953430,293.526978 
	C363.002136,302.056824 364.747559,303.647217 372.604462,302.208923 
	C373.654572,302.016693 374.862915,302.688873 376.300781,303.033264 
	C372.304504,307.964386 366.220825,308.857513 361.986786,305.630127 
	C357.532593,302.235016 356.578033,294.067017 360.087982,289.382446 
	C363.589783,284.708801 369.975647,284.229919 376.937073,289.317108 
	C374.277344,289.702393 372.743225,290.309662 371.377655,290.045502 
	C368.134552,289.418121 365.395569,289.414368 363.953430,293.526978 
z"/>
<path fill="#4A4949" opacity="1.000000" stroke="none" 
	d="
M250.757462,302.157532 
	C252.175034,302.463684 253.232620,302.899902 254.568420,303.450867 
	C249.336868,308.486115 243.116302,308.774139 239.146530,304.676880 
	C235.253387,300.658722 235.111115,292.845337 238.855545,288.695282 
	C242.741257,284.388672 248.981827,284.345734 255.097778,289.709930 
	C252.480377,289.913361 251.022064,289.901733 249.615021,290.164581 
	C247.357864,290.586273 243.462738,290.774506 243.209671,291.793762 
	C242.441788,294.886627 242.568314,298.491760 243.511215,301.536652 
	C243.782806,302.413696 247.993057,302.071045 250.757462,302.157532 
z"/>
<path fill="#474646" opacity="1.000000" stroke="none" 
	d="
M378.877472,302.029053 
	C376.875000,295.015747 378.015808,290.014679 382.011627,287.229004 
	C385.960663,284.475922 390.836945,284.903290 396.585968,289.453064 
	C394.092957,289.809723 392.715851,289.926819 391.375885,290.216003 
	C389.001526,290.728424 385.014435,290.809937 384.616333,292.025879 
	C383.681458,294.881317 383.897064,298.490051 384.862946,301.388794 
	C385.204834,302.414825 389.064301,302.344482 391.336456,302.623016 
	C392.673523,302.786926 394.047089,302.652954 396.133942,302.652954 
	C390.962402,309.379761 383.865234,308.836700 378.877472,302.029053 
z"/>
<path fill="#647ABF" opacity="1.000000" stroke="none" 
	d="
M183.549347,199.655487 
	C177.378632,202.710754 172.784851,201.600281 170.738983,196.864685 
	C168.734512,192.224869 170.756897,186.538849 175.561874,185.730179 
	C178.312546,185.267273 182.266006,186.389847 184.269699,188.286423 
	C187.714386,191.546921 186.928268,195.801743 183.549347,199.655487 
z"/>
<path fill="#545353" opacity="1.000000" stroke="none" 
	d="
M501.646606,289.015747 
	C501.646484,295.165924 501.646484,300.819122 501.646484,306.892212 
	C499.812622,306.892212 498.116302,306.892212 496.169708,306.892212 
	C496.169708,296.744781 496.169708,286.684540 496.169708,276.365295 
	C498.000031,276.365295 499.571259,276.365295 501.646729,276.365295 
	C501.646729,280.597229 501.646729,284.557983 501.646606,289.015747 
z"/>
<path fill="#545353" opacity="1.000000" stroke="none" 
	d="
M506.251221,288.024811 
	C506.251282,283.905701 506.251282,280.280792 506.251282,276.378784 
	C508.297852,276.378784 509.853516,276.378784 511.689331,276.378784 
	C511.689331,286.716675 511.689331,296.764771 511.689331,307.061279 
	C509.908112,307.061279 508.325073,307.061279 506.251129,307.061279 
	C506.251129,300.721283 506.251129,294.620148 506.251221,288.024811 
z"/>
<path fill="#647ABF" opacity="1.000000" stroke="none" 
	d="
M361.507507,398.707703 
	C356.766235,399.129761 353.217468,397.297516 352.655487,393.049408 
	C352.306122,390.408600 353.584320,386.856720 355.377930,384.800568 
	C357.736053,382.097260 361.371185,382.439331 364.448151,384.542053 
	C369.853424,388.235962 368.549988,395.294983 361.507507,398.707703 
z"/>
<path fill="#4A4949" opacity="1.000000" stroke="none" 
	d="
M96.278175,285.808472 
	C100.050819,285.794678 103.411804,285.794678 106.894859,285.794678 
	C107.424637,288.523376 107.689812,290.645691 104.045097,290.706573 
	C100.569633,290.764679 99.652031,293.234711 99.582680,296.150513 
	C99.500145,299.620117 99.563255,303.093170 99.563255,306.912964 
	C97.723755,306.912964 96.181290,306.912964 94.260361,306.912964 
	C94.260361,300.421906 94.210754,294.140533 94.330864,287.862396 
	C94.344055,287.172821 95.331131,286.501862 96.278175,285.808472 
z"/>
<path fill="#474646" opacity="1.000000" stroke="none" 
	d="
M155.100967,301.739990 
	C155.100983,296.313293 155.100983,291.349823 155.100983,286.487579 
	C159.412949,286.487579 163.459763,286.487579 167.969681,286.487579 
	C168.255081,288.220917 168.970978,290.480408 165.207886,290.630554 
	C161.477585,290.779327 160.584015,293.275421 160.587067,296.443420 
	C160.590271,299.767212 160.587784,303.090973 160.587784,306.917725 
	C158.909500,307.052704 157.355316,307.177704 155.353317,307.338715 
	C155.256973,305.378113 155.178955,303.790649 155.100967,301.739990 
z"/>
<path fill="#353434" opacity="1.000000" stroke="none" 
	d="
M211.029724,287.033386 
	C211.029724,293.831451 211.029724,300.134918 211.029724,306.840698 
	C209.341736,306.944275 207.967880,307.028595 206.291931,307.131439 
	C206.291931,296.805878 206.291931,286.886200 206.291931,276.795258 
	C209.602646,275.454926 211.342514,276.086273 211.056274,280.045532 
	C210.900558,282.199310 211.029282,284.373657 211.029724,287.033386 
z"/>
<path fill="#6CD696" opacity="1.000000" stroke="none" 
	d="
M234.334610,377.481232 
	C238.658081,379.645691 239.795090,382.801941 237.722961,386.656067 
	C236.138992,389.602234 233.379196,390.623871 230.110062,389.360046 
	C226.591629,387.999878 225.350830,385.208221 226.302628,381.774963 
	C227.341965,378.026031 230.177628,376.663544 234.334610,377.481232 
z"/>
<path fill="#43CA80" opacity="1.000000" stroke="none" 
	d="
M161.862747,171.690125 
	C163.880722,172.139465 166.192780,172.318787 167.066315,173.533005 
	C167.696243,174.408600 166.798721,176.932617 165.887772,178.235809 
	C164.587341,180.096207 162.876480,181.961990 160.902664,182.949814 
	C159.717804,183.542816 157.242706,182.957458 156.203705,181.985962 
	C155.415436,181.248886 155.369156,178.660309 156.067719,177.611771 
	C157.512695,175.442810 159.674149,173.751175 161.862747,171.690125 
z"/>
<path fill="#FF5E6F" opacity="1.000000" stroke="none" 
	d="
M289.118286,79.027550 
	C291.026855,76.948334 292.485107,74.668228 294.567352,73.547600 
	C296.020599,72.765495 298.328491,73.571434 300.254639,73.668030 
	C300.164032,75.429176 300.526459,77.391678 299.857971,78.896004 
	C299.160980,80.464386 297.668518,81.928558 296.158264,82.816597 
	C294.626160,83.717499 292.301178,84.662521 290.969391,84.088799 
	C289.819855,83.593597 289.577698,80.992058 289.118286,79.027550 
z"/>
<path fill="#FFAF0F" opacity="1.000000" stroke="none" 
	d="
M224.409103,109.428101 
	C223.204102,110.597427 222.376526,112.041618 221.260010,112.317848 
	C219.561890,112.737953 217.029327,113.025993 216.039749,112.099960 
	C215.162033,111.278603 215.514389,108.596413 216.054764,106.980057 
	C216.481339,105.704178 218.014954,104.796028 219.063400,103.730957 
	C220.992599,101.771149 223.077454,99.655106 225.847122,102.104988 
	C228.965714,104.863518 226.729248,107.093781 224.409103,109.428101 
z"/>
<path fill="#677DC1" opacity="1.000000" stroke="none" 
	d="
M409.015259,110.169342 
	C406.707397,110.422600 404.662598,110.425209 402.617798,110.427818 
	C402.967560,108.400368 402.976227,106.223572 403.777435,104.393822 
	C404.393219,102.987503 405.821899,101.450584 407.222382,100.994064 
	C409.093170,100.384232 411.286469,100.763733 413.341248,100.718353 
	C413.150299,102.614769 413.345490,104.670494 412.649078,106.358368 
	C412.067200,107.768631 410.441711,108.748322 409.015259,110.169342 
z"/>
<path fill="#FF586A" opacity="1.000000" stroke="none" 
	d="
M260.871094,71.168945 
	C258.703705,70.964546 256.842163,70.542610 254.980652,70.120667 
	C255.486359,68.241333 255.663651,66.175446 256.594086,64.537354 
	C257.451080,63.028572 258.922577,61.455864 260.482239,60.875191 
	C262.044159,60.293652 264.713989,60.240112 265.665741,61.190018 
	C266.531311,62.053898 266.284546,64.855415 265.544189,66.297745 
	C264.610413,68.116898 262.678375,69.423630 260.871094,71.168945 
z"/>
<path fill="#FFB31B" opacity="1.000000" stroke="none" 
	d="
M389.885193,389.691254 
	C389.624573,391.301422 389.542084,392.923492 388.701202,393.876251 
	C386.956116,395.853607 385.244690,398.893524 381.905396,396.777130 
	C381.166321,396.308716 380.801971,393.510162 381.312347,393.105499 
	C383.733948,391.185608 384.843567,385.734894 389.885193,389.691254 
z"/>
<path fill="#FF5E6F" opacity="1.000000" stroke="none" 
	d="
M266.993469,396.834534 
	C266.546539,397.362335 266.343750,397.633087 266.088745,397.839203 
	C264.060760,399.478760 262.154419,403.290863 259.261414,400.225159 
	C256.140503,396.917908 260.302399,395.071930 262.189880,393.198181 
	C263.016205,392.377838 265.408234,391.890686 266.069763,392.452576 
	C266.964691,393.212708 266.878601,395.127869 266.993469,396.834534 
z"/>
<path fill="#FFB829" opacity="1.000000" stroke="none" 
	d="
M273.758301,98.865051 
	C276.005829,98.520393 278.120544,98.182579 280.029388,98.662949 
	C280.525940,98.787918 281.043060,102.002708 280.365814,102.840973 
	C279.460815,103.961113 276.417358,105.021881 276.017792,104.572800 
	C274.760925,103.160255 274.311035,101.029655 273.758301,98.865051 
z"/>
<path fill="#FFB829" opacity="1.000000" stroke="none" 
	d="
M247.212128,181.694885 
	C247.561401,183.813751 248.121063,185.952026 247.411789,187.514160 
	C247.084381,188.235275 243.990570,188.401794 242.689590,187.748077 
	C241.722275,187.261993 240.934891,183.989426 241.249573,183.785904 
	C242.929138,182.699677 244.980698,182.188644 247.212128,181.694885 
z"/>
<path fill="#FFB31B" opacity="1.000000" stroke="none" 
	d="
M352.687195,112.911209 
	C351.940308,114.948120 351.240784,116.944450 349.890503,118.285599 
	C349.495483,118.677956 346.640900,117.557610 346.023865,116.489357 
	C345.418182,115.440750 346.052277,112.333496 346.439758,112.279900 
	C348.401978,112.008423 350.461121,112.437286 352.687195,112.911209 
z"/>
<path fill="#43CA80" opacity="1.000000" stroke="none" 
	d="
M345.633453,128.706696 
	C343.366913,128.598648 341.262421,128.509705 339.478394,127.707802 
	C339.069305,127.523926 339.249725,124.390450 340.093292,123.518028 
	C340.939484,122.642914 343.986420,122.288208 344.267822,122.766075 
	C345.239899,124.416618 345.426300,126.529846 345.633453,128.706696 
z"/>
<path fill="#FF5E6F" opacity="1.000000" stroke="none" 
	d="
M381.835876,174.267426 
	C382.219879,176.316284 382.827667,178.405945 382.166290,179.953064 
	C381.862793,180.663010 378.792328,180.876343 377.491577,180.248306 
	C376.517883,179.778152 375.700195,176.520584 375.960175,176.359909 
	C377.645081,175.318390 379.644562,174.785843 381.835876,174.267426 
z"/>
<path fill="#FFB31B" opacity="1.000000" stroke="none" 
	d="
M372.348358,183.321030 
	C372.994171,185.358643 373.306061,187.224350 373.617950,189.090073 
	C371.953125,189.349350 370.143372,190.109940 368.676117,189.685760 
	C367.749634,189.417923 366.582886,186.472672 366.811920,186.282913 
	C368.353424,185.005768 370.239777,184.144867 372.348358,183.321030 
z"/>
<path fill="#FF5E6F" opacity="1.000000" stroke="none" 
	d="
M266.600525,89.848160 
	C267.316376,86.558968 269.363708,85.203293 272.031586,86.401581 
	C273.223724,86.937035 274.482819,89.386215 274.187622,90.594650 
	C273.887878,91.821884 271.658539,93.412476 270.370575,93.330528 
	C269.064117,93.247398 267.875366,91.314156 266.600525,89.848160 
z"/>
<path fill="#7084C4" opacity="1.000000" stroke="none" 
	d="
M250.681366,191.880341 
	C252.920883,191.633377 255.015488,191.405106 256.896545,191.934967 
	C257.405975,192.078461 257.903381,195.117706 257.288208,195.764740 
	C256.236603,196.870773 253.278793,198.013153 252.923462,197.598007 
	C251.684219,196.150131 251.216904,194.041534 250.681366,191.880341 
z"/>
<path fill="#FFB829" opacity="1.000000" stroke="none" 
	d="
M309.286957,345.436340 
	C307.528625,344.991638 305.990662,344.475525 304.717041,343.582489 
	C304.492584,343.425018 305.152069,341.044617 305.791229,340.826233 
	C306.975708,340.421600 309.228302,340.390869 309.618195,341.046997 
	C310.229675,342.076050 309.664307,343.804413 309.286957,345.436340 
z"/>
<path fill="#7084C4" opacity="1.000000" stroke="none" 
	d="
M307.911804,355.857605 
	C306.559296,354.678070 305.456024,353.533203 304.715759,352.188477 
	C304.607117,351.991150 306.203827,350.302216 307.046906,350.271332 
	C308.141266,350.231323 309.271149,351.161041 310.385742,351.673340 
	C309.683228,353.058136 308.980713,354.442963 307.911804,355.857605 
z"/>
<path fill="#FFB829" opacity="1.000000" stroke="none" 
	d="
M253.009079,354.611267 
	C253.348755,351.273590 255.145096,350.261627 257.691772,351.693573 
	C258.459991,352.125549 259.031433,354.597534 258.528534,355.292969 
	C256.806915,357.673615 254.748672,357.464630 253.009079,354.611267 
z"/>
<path fill="#7084C4" opacity="1.000000" stroke="none" 
	d="
M261.089783,358.807495 
	C262.873566,359.105225 264.421997,359.524933 265.826599,360.230896 
	C265.970276,360.303131 265.505859,362.683655 264.878113,362.952393 
	C263.743744,363.438049 261.597443,363.666473 261.105408,363.037994 
	C260.416840,362.158478 260.856506,360.395752 261.089783,358.807495 
z"/>
<path fill="#F6F6F6" opacity="1.000000" stroke="none" 
	d="
M84.867630,292.002808 
	C83.677666,299.759918 80.298477,303.153931 74.632774,302.697266 
	C69.247932,302.263245 66.092133,298.536804 65.993454,292.495789 
	C65.890297,286.179474 68.640182,282.445587 73.910820,281.745392 
	C79.541039,280.997345 83.190750,283.684296 84.587242,289.630798 
	C84.737991,290.272736 84.769348,290.942688 84.867630,292.002808 
z"/>
<path fill="#EFEFEF" opacity="1.000000" stroke="none" 
	d="
M114.206329,292.811798 
	C116.372971,291.539886 118.423363,290.661713 120.473755,289.783569 
	C121.222610,291.578705 122.153542,293.324677 122.656151,295.186340 
	C122.989861,296.422363 123.194992,298.126160 122.597214,299.083008 
	C121.604454,300.672058 119.984535,302.792297 118.507835,302.891663 
	C117.082581,302.987610 114.800552,301.096893 114.175697,299.558655 
	C113.433258,297.730927 114.057861,295.347931 114.206329,292.811798 
z"/>
<path fill="#EFEFEF" opacity="1.000000" stroke="none" 
	d="
M285.475616,290.747192 
	C288.377136,288.834229 290.967041,288.772949 292.586090,291.638153 
	C294.138031,294.384644 292.626221,301.864166 290.567322,302.642975 
	C287.542816,303.787140 284.531677,303.530975 284.147705,299.685059 
	C283.866455,296.868591 284.812317,293.929596 285.475616,290.747192 
z"/>
<path fill="#EBEAEA" opacity="1.000000" stroke="none" 
	d="
M196.782501,286.941010 
	C195.579636,293.302399 191.073547,292.041656 186.710602,292.011353 
	C186.710602,288.432404 186.710602,285.066925 186.710602,281.740234 
	C193.446854,280.683563 195.281860,281.589905 196.782501,286.941010 
z"/>
<path fill="#EBEAEA" opacity="1.000000" stroke="none" 
	d="
M224.568451,303.562073 
	C222.762756,303.050903 221.335281,302.383087 219.907806,301.715271 
	C221.925232,300.250397 223.942642,298.785492 225.960068,297.320587 
	C226.551773,297.865112 227.143494,298.409637 227.735214,298.954163 
	C226.805710,300.437927 225.876190,301.921661 224.568451,303.562073 
z"/>
<path fill="#EBEAEA" opacity="1.000000" stroke="none" 
	d="
M263.727570,289.945190 
	C267.441101,288.570923 269.763458,289.404266 270.897736,293.570618 
	C267.838226,293.570618 265.033661,293.570618 261.427643,293.570618 
	C262.132050,292.330139 262.753998,291.234894 263.727570,289.945190 
z"/>
<path fill="#EBEAEA" opacity="1.000000" stroke="none" 
	d="
M405.092041,290.056335 
	C409.026093,288.401062 411.314545,289.408966 412.395172,293.707031 
	C409.157440,293.707031 406.299774,293.707031 402.749451,293.707031 
	C403.548676,292.344116 404.157562,291.305725 405.092041,290.056335 
z"/>
<path fill="#EBEAEA" opacity="1.000000" stroke="none" 
	d="
M141.208038,294.023804 
	C139.713196,293.928741 138.624680,293.833893 137.536179,293.739014 
	C137.328430,293.251190 137.120682,292.763336 136.912949,292.275513 
	C138.824371,291.261902 140.708801,289.541595 142.656113,289.467133 
	C144.110092,289.411591 145.645309,291.481445 147.144348,292.604828 
	C146.904739,293.077850 146.665115,293.550903 146.425491,294.023956 
	C144.821793,294.023956 143.218079,294.023956 141.208038,294.023804 
z"/>
</svg>